<?xml version="1.0" standalone="no"?>
<!DOCTYPE svg PUBLIC "-//W3C//DTD SVG 20010904//EN"
 "http://www.w3.org/TR/2001/REC-SVG-20010904/DTD/svg10.dtd">
<svg version="1.0" xmlns="http://www.w3.org/2000/svg"
 width="887.000000pt" height="894.000000pt" viewBox="0 0 887.000000 894.000000"
 preserveAspectRatio="xMidYMid meet">

<g transform="translate(0.000000,894.000000) scale(0.100000,-0.100000)"
fill="#000000" stroke="none">
<path d="M0 4470 l0 -4470 4435 0 4435 0 0 4470 0 4470 -4435 0 -4435 0 0
-4470z m5242 3844 c117 -16 264 -50 285 -67 7 -5 10 -14 6 -20 -4 -6 3 -8 18
-4 30 8 44 -1 54 -32 l7 -24 19 24 19 24 0 -32 c0 -40 -40 -416 -45 -422 -2
-2 -7 9 -11 23 -3 15 -4 30 -1 33 4 3 -3 23 -14 44 -19 39 -19 39 1 39 15 0
20 7 20 29 0 17 -5 33 -11 36 -6 4 -9 28 -8 54 1 25 -1 61 -5 78 -5 20 -2 46
5 68 10 28 10 38 1 47 -10 10 -15 10 -22 -2 -7 -12 -12 -12 -22 -2 -21 21 -28
13 -28 -30 0 -24 -7 -89 -15 -145 -8 -55 -17 -148 -21 -205 -3 -56 -8 -105
-11 -108 -8 -8 -172 0 -199 10 -13 5 -24 15 -24 21 0 17 -95 210 -130 266
l-32 48 7 125 c4 69 9 128 12 133 6 10 16 9 145 -9z m2608 -291 c-6 -105 -13
-216 -16 -249 -17 -210 -46 -542 -59 -674 -8 -85 -21 -247 -30 -360 -8 -113
-19 -252 -25 -310 -17 -170 -51 -579 -55 -654 -4 -76 -9 -87 -23 -59 -7 12 -7
59 -1 133 17 218 19 279 7 286 -7 4 -13 3 -15 -3 -2 -6 -14 -8 -25 -5 -16 4
-20 2 -15 -10 4 -12 -3 -18 -31 -23 -66 -12 -144 -6 -312 25 -91 17 -212 38
-269 48 -72 12 -107 23 -115 34 -6 10 -7 20 -3 24 3 4 77 -5 164 -19 87 -14
185 -30 218 -34 l60 -9 -3 81 c-4 124 -4 125 -60 127 -38 1 -40 2 -14 5 24 3
32 8 28 19 -3 8 4 18 15 25 16 8 20 18 17 39 -3 20 -1 27 9 23 15 -6 28 -47
19 -62 -4 -6 1 -25 11 -43 9 -18 20 -53 24 -78 l6 -45 2 46 c1 44 20 77 34 62
4 -3 7 -33 7 -66 0 -43 3 -57 13 -54 7 2 11 17 10 35 -2 17 2 34 7 37 7 4 7
12 0 25 -7 14 -6 23 6 35 11 10 13 20 6 28 -5 7 -8 39 -7 72 2 33 0 65 -4 70
-3 6 -6 43 -7 83 l-1 72 56 -1 c31 0 94 -6 141 -13 47 -7 86 -12 87 -11 2 0 7
68 13 151 6 82 18 223 26 314 8 91 17 211 20 267 l7 101 -24 4 c-36 5 -60 63
-70 171 -26 285 -31 366 -25 390 6 26 9 27 44 21 70 -13 112 -36 113 -64 1
-51 28 32 29 90 0 56 9 104 17 96 2 -2 -1 -89 -7 -193z m-547 142 c105 -16
206 -39 244 -55 12 -5 29 -22 36 -37 19 -37 31 -271 15 -290 -6 -8 -11 -58
-12 -119 -1 -81 -4 -107 -16 -115 -22 -15 -327 2 -525 29 -38 5 -52 12 -61 31
-17 33 -69 58 -89 41 -12 -10 -15 -10 -15 1 0 9 -5 7 -12 -5 -10 -18 -12 -17
-23 10 l-12 29 -6 -50 c-4 -27 -12 -57 -18 -65 -7 -11 -9 20 -4 105 8 153 34
445 41 456 6 11 45 17 199 33 72 7 136 14 143 15 6 0 58 -6 115 -14z m-1753
-237 c0 -18 -2 -20 -9 -8 -6 8 -7 18 -5 22 9 14 14 9 14 -14z m-10 -32 c0 -11
-19 -15 -25 -6 -3 5 1 10 9 10 9 0 16 -2 16 -4z m-1401 -109 c56 -19 81 -22
101 -15 19 6 34 5 54 -6 16 -8 34 -12 41 -10 6 3 37 -5 68 -16 31 -12 62 -20
69 -19 24 3 38 -1 38 -11 0 -5 -7 -10 -15 -10 -9 0 -15 -9 -15 -24 0 -16 -7
-27 -19 -31 -11 -3 -23 -15 -26 -26 -9 -27 4 -112 17 -120 6 -4 8 -14 5 -22
-5 -13 -10 -14 -31 -4 -26 12 -35 27 -15 27 5 0 7 5 4 10 -8 13 -35 -13 -35
-35 0 -8 -12 -20 -26 -25 -35 -14 -34 -14 -34 20 0 17 5 30 11 30 5 0 7 5 4
10 -11 18 -23 1 -30 -40 -4 -22 -11 -42 -15 -45 -13 -8 0 -35 16 -35 8 0 14
-5 14 -11 0 -14 -26 -39 -40 -39 -8 0 -9 -11 -5 -32 10 -47 13 -49 51 -42 l34
6 0 -42 c0 -25 -6 -48 -16 -57 -11 -12 -14 -27 -10 -51 7 -47 23 -62 40 -39
20 26 26 21 26 -23 0 -22 -4 -40 -10 -40 -5 0 -7 -6 -4 -14 7 -19 -40 -49 -64
-41 -12 3 -26 -1 -35 -10 -9 -8 -33 -16 -54 -18 -21 -2 -49 -9 -61 -16 -13 -7
-31 -9 -40 -6 -9 4 -44 8 -77 9 -33 2 -98 14 -145 29 -79 25 -189 38 -325 41
-43 1 -50 -2 -53 -20 -2 -14 8 -28 36 -47 21 -15 42 -27 47 -27 15 0 125 -43
125 -49 0 -3 -13 -13 -29 -22 -50 -29 -140 3 -173 62 -16 27 -34 34 -78 31 -8
0 -23 13 -33 30 -14 24 -20 28 -31 19 -21 -18 -29 -77 -15 -116 16 -44 -1 -71
-33 -54 -15 8 -31 8 -57 -1 -35 -11 -36 -13 -33 -56 3 -32 0 -44 -9 -44 -8 0
7 -19 32 -42 33 -32 44 -49 41 -67 -3 -19 0 -23 15 -19 10 3 24 -1 31 -8 8 -9
35 -13 76 -13 71 1 88 -4 80 -26 -6 -15 42 -64 64 -65 11 0 16 -15 13 -50 0
-9 2 -10 5 -3 4 9 14 7 38 -5 33 -17 49 -41 61 -94 4 -15 13 -32 21 -39 8 -6
14 -20 14 -30 0 -15 8 -19 39 -19 22 0 41 5 44 13 2 7 19 14 37 15 17 1 45 9
60 17 16 8 46 15 68 15 21 0 47 7 58 15 10 8 27 15 37 15 9 0 42 14 72 31 30
17 59 27 65 24 7 -4 18 2 26 14 17 23 44 27 62 9 9 -9 12 -6 12 16 0 19 12 38
36 62 20 19 41 34 45 34 15 0 10 30 -6 47 -26 25 -16 90 18 119 26 22 31 23
60 11 18 -8 37 -24 44 -38 7 -13 19 -28 26 -34 16 -12 57 -147 57 -188 0 -43
23 -117 36 -117 7 0 16 -15 19 -32 4 -18 11 -37 15 -43 4 -5 13 -27 19 -47 7
-21 17 -38 23 -38 7 0 8 -22 4 -67 -9 -92 -15 -110 -34 -115 -10 -3 -23 -22
-31 -44 -8 -21 -21 -44 -30 -51 -20 -16 -86 -17 -113 -2 -15 8 -50 8 -132 -1
-82 -9 -121 -10 -150 -2 -22 7 -42 9 -44 7 -3 -3 -1 -19 4 -37 14 -47 64 -79
112 -70 59 11 145 8 149 -5 2 -6 -12 -17 -32 -23 -20 -7 -48 -25 -63 -41 -14
-16 -32 -29 -39 -29 -8 0 -11 -5 -8 -10 4 -6 11 -7 17 -4 8 5 9 1 5 -10 -4
-10 -7 -22 -7 -27 0 -11 -76 -50 -93 -48 -25 3 -37 -1 -37 -14 0 -9 -10 -12
-30 -9 -16 2 -41 1 -56 -2 -22 -6 -25 -11 -20 -34 l6 -27 -15 28 c-15 26 -18
27 -68 21 -29 -4 -57 -11 -64 -16 -7 -5 -18 -6 -24 -2 -7 4 -18 -1 -25 -11 -8
-11 -21 -16 -33 -12 -11 3 -25 -1 -32 -9 -6 -8 -17 -14 -24 -14 -7 0 -29 -16
-49 -36 -29 -29 -37 -33 -42 -20 -9 22 -20 12 -28 -24 -3 -17 -13 -38 -21 -46
-8 -9 -15 -27 -15 -42 0 -51 -11 -72 -36 -72 -23 0 -30 10 -85 137 -13 30 -15
31 -31 16 -10 -9 -19 -23 -19 -32 -1 -9 -4 0 -8 19 -4 25 -11 35 -24 34 -9 -1
-17 4 -17 12 0 8 -9 14 -19 14 -10 0 -21 7 -25 15 -3 8 -12 15 -19 15 -8 0
-28 18 -46 40 -17 22 -37 39 -43 37 -7 -1 -20 15 -30 35 -10 21 -29 45 -43 54
-14 9 -25 21 -25 28 0 6 -9 22 -20 36 -11 14 -20 33 -20 43 0 11 -8 17 -25 17
-19 0 -31 11 -52 48 -16 27 -33 47 -39 45 -13 -4 -26 35 -18 49 4 5 12 7 20 4
8 -3 14 -1 14 5 0 5 10 9 23 8 60 -5 67 -1 67 41 0 28 4 40 14 40 8 0 20 16
26 35 10 29 9 38 -4 51 -9 8 -16 11 -16 5 0 -16 -26 -13 -40 4 -7 9 -14 31
-16 51 -2 29 0 33 12 23 12 -9 14 -6 14 21 0 26 -3 30 -14 21 -11 -9 -18 -1
-37 41 l-23 53 -7 -40 c-4 -22 -8 -55 -8 -72 -1 -28 -5 -33 -26 -33 -22 0 -25
-4 -25 -39 0 -21 6 -44 14 -50 8 -6 17 -37 21 -69 4 -31 12 -63 17 -69 8 -10
5 -13 -10 -13 -12 0 -24 11 -32 30 -7 16 -18 35 -26 41 -17 14 -18 30 -2 27 7
-2 14 7 16 20 2 12 -1 22 -7 22 -6 0 -11 10 -11 23 0 13 -13 34 -30 49 -27 24
-36 54 -29 104 0 4 -4 10 -10 13 -6 4 -10 52 -10 116 -1 61 -1 124 -1 140 0
17 4 39 9 50 5 11 14 35 21 53 7 17 18 32 25 32 8 0 24 17 36 38 13 20 25 39
28 42 32 29 32 38 0 95 -23 41 -29 59 -20 64 9 6 7 14 -6 30 -18 22 -18 21
-19 -54 -1 -78 -19 -122 -31 -77 -5 19 -11 22 -30 17 l-24 -6 21 21 c20 20 28
70 10 70 -5 0 -12 11 -16 25 -3 14 -10 25 -15 25 -5 0 -9 -11 -9 -25 0 -18 -5
-25 -20 -25 -13 0 -20 7 -20 20 0 11 4 20 9 20 5 0 12 18 16 41 7 38 9 40 35
34 20 -4 37 1 63 18 l36 25 -37 6 c-28 4 -40 2 -49 -11 -12 -15 -13 -15 -13
-1 0 9 5 20 10 23 6 3 10 19 10 36 0 16 4 29 8 29 5 0 17 19 28 41 10 23 20
36 22 30 6 -17 32 -13 32 5 0 15 2 15 25 0 l25 -16 0 39 c0 27 5 41 18 46 15
7 14 9 -8 15 -23 7 -23 8 -3 9 12 1 29 4 39 8 12 4 15 3 10 -5 -4 -7 -1 -12 8
-12 9 0 16 -7 16 -15 0 -8 4 -15 8 -15 14 0 32 24 32 43 0 14 -5 18 -20 14
-13 -3 -20 0 -20 9 0 8 9 14 21 14 27 0 59 18 59 33 0 7 10 17 22 22 13 6 25
23 29 40 4 17 13 55 19 85 7 30 17 60 22 66 4 7 15 34 23 60 41 141 65 188 65
124 0 -26 4 -30 28 -30 16 0 37 9 47 20 12 13 25 18 38 14 12 -4 27 2 42 16
19 17 38 23 97 26 40 2 91 9 113 17 28 10 81 13 180 12 119 -2 151 -6 214 -28z
m3767 -1067 c-9 -85 -20 -213 -26 -285 -22 -270 -41 -482 -50 -553 -6 -40 -10
-89 -10 -108 0 -30 3 -35 18 -29 9 3 29 9 43 12 25 5 27 9 28 61 0 30 3 58 6
60 3 3 5 -103 5 -236 l0 -242 -26 10 c-14 6 -36 10 -50 10 -19 0 -24 5 -24 24
0 14 -4 28 -10 31 -5 3 -10 25 -10 48 0 38 -3 44 -30 54 -19 7 -30 18 -30 30
0 27 10 34 31 22 17 -8 19 -6 19 20 0 16 3 36 6 45 5 12 -1 16 -24 16 -17 0
-33 3 -35 8 -3 4 -1 50 3 102 5 52 16 181 24 285 9 105 28 318 42 475 14 157
29 337 34 400 5 63 14 169 20 235 6 66 19 228 30 360 11 132 21 242 22 245 2
3 4 -209 6 -470 2 -369 0 -510 -12 -630z m-2542 878 c17 1 36 -2 41 -6 23 -16
43 -60 39 -87 -7 -67 -38 -413 -39 -440 0 -15 -34 -26 -61 -19 -23 6 -24 9
-18 68 14 138 7 380 -12 430 -4 11 -1 21 7 27 10 6 10 9 2 9 -7 0 -13 7 -13
16 0 9 5 12 12 8 6 -4 25 -7 42 -6z m1876 -124 c14 -3 85 -9 158 -13 97 -5
136 -11 147 -22 16 -16 29 -99 45 -284 5 -55 13 -114 18 -131 5 -16 8 -55 7
-85 l-3 -54 -64 -3 c-81 -4 -539 37 -555 50 -10 8 -13 73 -13 264 0 313 -8
295 137 288 54 -3 109 -7 123 -10z m-1660 -14 c0 -5 -5 -10 -11 -10 -5 0 -7 5
-4 10 3 6 8 10 11 10 2 0 4 -4 4 -10z m-16 -137 c-7 -72 -23 -120 -24 -71 0
15 -4 30 -10 33 -15 10 -12 35 5 35 8 0 15 2 15 4 0 2 3 11 6 20 4 11 1 16
-10 16 -22 0 -20 17 2 23 9 3 18 5 20 6 1 0 0 -29 -4 -66z m-1167 -155 c-2
-46 -23 -63 -32 -25 -7 26 9 67 24 67 5 0 9 -19 8 -42z m3249 -195 c-10 -10
-19 5 -10 18 6 11 8 11 12 0 2 -7 1 -15 -2 -18z m-5108 -78 c23 -13 59 -44 78
-70 42 -54 84 -75 149 -75 81 0 83 -2 79 -137 -5 -162 -14 -473 -14 -500 0
-33 -17 -28 -36 10 -9 17 -20 34 -24 37 -12 8 -69 53 -92 73 -12 9 -24 17 -28
17 -4 0 -12 19 -18 41 -9 37 -8 46 15 80 27 40 51 54 94 51 23 -2 27 3 33 35
3 21 6 43 6 49 0 14 -49 36 -62 28 -7 -4 -8 -2 -4 4 4 7 2 12 -4 12 -6 0 -15
12 -21 28 -11 27 -11 27 -20 5 -4 -12 -19 -25 -33 -29 -13 -3 -27 -12 -30 -21
-4 -9 -17 -13 -38 -11 -27 3 -32 -1 -39 -26 -5 -16 -13 -32 -19 -36 -16 -10
-14 -103 3 -136 14 -27 104 -104 123 -104 5 -1 24 -21 42 -45 18 -25 41 -45
51 -45 29 0 44 -25 36 -60 -6 -26 -2 -35 19 -55 23 -22 26 -29 20 -67 -4 -24
-11 -44 -16 -46 -4 -2 -8 -10 -8 -17 0 -23 -54 -35 -85 -19 -15 8 -34 14 -41
14 -8 0 -14 5 -14 10 0 6 -6 10 -14 10 -20 0 -84 77 -91 110 -3 15 -15 36 -26
45 -17 16 -80 136 -99 190 -26 73 -33 96 -47 145 -8 30 -19 63 -25 73 -28 53
-58 157 -58 202 0 50 32 152 60 191 8 12 32 33 53 47 44 30 75 28 145 -8z
m982 -65 c0 -5 -4 -10 -10 -10 -5 0 -10 5 -10 10 0 6 5 10 10 10 6 0 10 -4 10
-10z m1852 -5 c0 -5 -7 -14 -16 -20 -12 -7 -19 -6 -26 5 -5 8 -10 19 -10 23 0
12 50 4 52 -8z m2011 -122 c10 -6 9 -83 -2 -83 -5 0 -11 13 -14 30 -5 20 -11
28 -21 24 -23 -9 -27 -31 -14 -80 10 -37 10 -47 -1 -54 -8 -4 -21 -6 -29 -3
-11 5 -13 21 -7 87 4 45 9 85 12 89 5 8 58 1 76 -10z m-3123 -223 c9 -17 8
-20 -10 -20 -13 0 -20 7 -20 20 0 11 4 20 10 20 5 0 14 -9 20 -20z m2520 -51
c0 -5 -4 -9 -10 -9 -5 0 -10 7 -10 16 0 8 5 12 10 9 6 -3 10 -10 10 -16z m40
-32 c0 -19 36 -36 78 -37 36 0 44 4 54 25 11 25 22 29 68 25 34 -3 44 -10 31
-23 -8 -8 -14 -8 -23 1 -16 16 -23 15 -41 -3 -11 -10 -14 -31 -11 -75 3 -37 1
-60 -6 -60 -5 0 -10 15 -10 33 0 26 -6 35 -29 45 -31 13 -57 17 -103 14 -22
-2 -27 -7 -30 -34 -2 -28 -7 -33 -28 -33 -33 0 -40 39 -11 55 12 6 21 21 21
33 0 12 3 32 6 45 5 18 9 20 20 11 8 -6 14 -16 14 -22z m318 -14 c-10 -2 -28
-2 -40 0 -13 2 -5 4 17 4 22 1 32 -1 23 -4z m-4086 -244 l-10 -44 -1 55 c-1
39 2 51 10 43 7 -7 8 -24 1 -54z m4578 -39 c0 -5 -4 -10 -10 -10 -5 0 -10 5
-10 10 0 6 5 10 10 10 6 0 10 -4 10 -10z m-4545 -42 c12 -75 10 -123 -5 -123
-11 0 -15 12 -15 44 0 27 -5 46 -12 48 -7 3 -13 18 -13 34 0 22 5 29 20 29 14
0 21 -9 25 -32z m4051 -207 c74 -34 109 -84 195 -283 44 -100 82 -193 85 -205
4 -13 10 -23 15 -23 5 0 9 -6 9 -13 0 -8 16 -46 35 -86 19 -39 35 -73 35 -75
0 -2 16 -38 35 -79 19 -41 35 -80 35 -86 0 -6 5 -11 10 -11 6 0 10 -7 10 -15
0 -8 4 -23 9 -33 6 -9 24 -48 41 -87 17 -38 42 -92 55 -120 56 -117 79 -171
81 -193 2 -13 8 -29 14 -36 12 -16 40 -104 40 -129 0 -10 13 -37 29 -60 15
-23 26 -48 24 -54 -3 -7 2 -16 11 -19 9 -3 16 -12 16 -19 0 -9 -11 -10 -47 -4
-35 6 -53 16 -68 36 -44 60 -127 130 -203 171 -74 39 -112 51 -112 35 0 -4 19
-38 41 -76 23 -38 42 -83 43 -100 1 -28 -2 -31 -48 -43 -28 -7 -53 -11 -57 -8
-9 5 -290 7 -329 2 -27 -3 -28 2 -15 61 l7 34 -41 -44 c-22 -24 -41 -47 -41
-51 0 -4 -9 -12 -21 -19 -17 -9 -25 -7 -45 12 l-24 22 0 -21 c0 -12 -5 -31
-12 -41 -9 -15 -8 -22 5 -36 9 -9 17 -23 17 -31 0 -9 5 -24 11 -35 8 -16 13
-18 24 -9 8 7 19 9 24 6 6 -4 15 3 21 14 13 24 27 25 52 3 24 -21 23 -43 -2
-43 -11 0 -20 5 -20 11 0 6 -6 9 -12 6 -7 -2 -12 -11 -10 -21 2 -9 -4 -16 -13
-16 -9 0 -13 5 -10 10 4 6 -7 10 -25 10 -17 0 -29 -4 -25 -10 3 -5 -8 -16 -25
-25 -16 -8 -37 -26 -45 -39 -12 -18 -41 -32 -105 -52 -78 -23 -88 -29 -80 -44
5 -10 40 -30 77 -46 37 -16 70 -31 73 -34 14 -14 56 -37 118 -62 17 -7 32 -16
32 -20 0 -4 16 -10 36 -14 36 -7 44 -30 14 -44 -83 -38 -88 -44 -65 -74 14
-19 15 -19 57 2 24 11 54 24 68 28 14 3 33 13 42 21 21 18 58 2 58 -26 0 -24
39 -73 40 -50 0 24 47 12 53 -13 4 -15 11 -18 27 -13 13 4 28 1 38 -9 12 -10
34 -14 72 -12 30 1 72 -4 94 -11 21 -7 54 -13 73 -13 32 0 34 -2 31 -27 -2
-16 -8 -27 -15 -25 -7 1 -13 -5 -13 -13 0 -8 -3 -15 -7 -16 -43 -5 -141 -9
-195 -8 -62 0 -198 -15 -240 -27 -10 -3 -15 -11 -11 -20 3 -7 0 -14 -6 -14 -6
0 -10 -3 -9 -7 1 -5 -4 -20 -12 -35 -9 -20 -10 -31 -2 -40 8 -11 17 -72 13
-101 -1 -4 -10 -3 -21 3 -15 8 -20 21 -20 50 0 22 -5 40 -10 40 -6 0 -8 -15
-4 -40 6 -36 4 -40 -14 -40 -27 0 -36 -39 -15 -62 9 -10 11 -18 5 -18 -6 0
-14 -9 -17 -20 -3 -11 -13 -20 -21 -20 -8 0 -14 -10 -14 -22 0 -19 -2 -20 -17
-6 -28 24 -70 28 -88 8 -15 -17 -18 -16 -53 1 -20 11 -45 19 -57 19 -28 0 -45
13 -50 39 -2 12 -15 35 -29 51 -13 16 -26 35 -29 42 -2 7 -8 9 -13 5 -4 -4 -3
-17 4 -27 16 -27 15 -50 -3 -50 -23 0 -26 107 -4 121 7 4 8 12 4 20 -6 8 -4
11 6 7 12 -5 14 1 12 26 -3 28 -2 29 7 9 13 -31 30 -29 30 2 0 29 16 33 25 6
5 -16 11 -17 53 -9 26 6 51 14 56 18 10 10 -14 78 -30 84 -17 6 -126 -39 -140
-59 -10 -14 -14 -11 -32 19 -11 19 -40 75 -64 125 -33 70 -48 91 -63 90 -20 0
-55 -21 -55 -32 0 -3 22 -52 49 -109 27 -57 53 -116 58 -133 10 -32 43 -48 43
-21 0 9 5 16 10 16 38 0 -29 -54 -82 -65 -15 -4 -28 -12 -28 -19 0 -15 -66
-37 -88 -29 -12 5 -14 1 -10 -15 5 -17 2 -21 -13 -19 -20 2 -24 -20 -30 -183
-3 -83 24 -105 99 -77 25 8 36 9 39 1 2 -6 17 -8 33 -6 24 3 29 1 24 -11 -7
-20 -18 -24 -127 -41 -123 -20 -159 -12 -213 49 -34 38 -43 57 -48 99 -11 98
20 159 109 211 22 13 59 28 83 35 23 6 42 15 42 20 0 5 -51 112 -113 237 -62
125 -151 309 -199 408 -48 99 -171 353 -274 565 -256 527 -255 527 -261 592
-7 72 18 144 66 194 37 38 133 89 316 169 61 26 160 70 220 97 61 28 171 76
245 108 74 32 209 93 300 135 254 119 300 131 376 96z m579 -183 c7 -20 -9
-81 -23 -86 -13 -4 -17 53 -6 82 7 19 23 21 29 4z m-3215 -138 c0 -5 -7 -10
-15 -10 -8 0 -15 5 -15 10 0 6 7 10 15 10 8 0 15 -4 15 -10z m-112 -12 c-3 -7
-24 -18 -49 -26 -107 -31 -237 -65 -268 -69 l-33 -5 16 25 c15 22 22 24 61 19
36 -4 45 -2 45 11 0 15 36 34 46 24 2 -2 28 4 57 14 62 21 131 25 125 7z
m3532 -185 c0 -34 -1 -35 -17 -21 -10 9 -37 19 -60 23 -23 3 -44 13 -47 21 -4
11 7 14 59 14 l65 0 0 -37z m-4630 -3 c0 -5 -2 -10 -4 -10 -3 0 -8 5 -11 10
-3 6 -1 10 4 10 6 0 11 -4 11 -10z m644 -19 c3 -4 -6 -13 -19 -19 -36 -17 -31
-32 11 -32 31 0 35 2 29 21 -5 16 -3 20 6 17 8 -3 13 -13 11 -23 -4 -18 77
-105 98 -105 5 0 10 -4 10 -9 0 -5 18 -12 40 -16 26 -4 40 -12 40 -22 0 -13 3
-13 15 -3 25 21 30 2 7 -23 -14 -15 -22 -36 -22 -59 0 -20 -9 -46 -20 -61 -18
-22 -25 -25 -45 -17 -20 7 -25 6 -25 -5 0 -8 -5 -15 -11 -15 -8 0 -7 -5 1 -15
12 -14 15 -14 30 0 10 9 41 17 71 19 30 2 62 7 73 11 10 5 33 3 50 -3 18 -7
42 -12 54 -12 28 0 28 -9 -2 -48 -15 -21 -22 -41 -18 -57 2 -14 0 -25 -4 -25
-25 -1 -35 -17 -24 -44 8 -22 7 -28 -8 -33 -26 -10 -43 -36 -29 -45 19 -12 -6
-29 -52 -35 -31 -4 -41 -2 -41 8 0 10 -12 14 -40 14 -38 0 -40 -1 -40 -31 0
-28 -3 -31 -22 -27 -13 3 -28 10 -35 15 -7 5 -17 7 -23 3 -7 -4 -14 2 -17 15
-9 35 -47 22 -51 -18 -2 -18 -7 -30 -12 -27 -5 3 -6 13 -3 22 5 13 2 15 -21 9
-39 -10 -132 38 -145 75 -6 16 -17 29 -27 29 -11 0 -15 6 -11 20 3 11 1 23 -4
26 -5 3 -9 12 -9 21 0 9 -9 36 -21 59 -16 33 -18 47 -10 63 6 11 11 36 11 55
0 20 5 36 10 36 6 0 10 7 10 15 0 9 13 24 30 33 19 11 30 25 30 39 0 12 5 25
10 28 6 3 10 20 10 36 0 22 12 42 48 78 61 62 94 82 106 62z m351 -59 c-8 -8
-25 10 -19 20 4 6 9 5 15 -3 4 -7 6 -15 4 -17z m-632 -72 c-3 -11 -7 -20 -9
-20 -2 0 -4 9 -4 20 0 11 4 20 9 20 5 0 7 -9 4 -20z m-1490 -100 c3 -11 1 -18
-4 -14 -5 3 -9 12 -9 20 0 20 7 17 13 -6z m1040 -241 c-3 -10 -9 -16 -14 -13
-11 6 -12 38 -2 47 10 11 21 -13 16 -34z m-158 -17 c0 -32 -2 -36 -12 -26 -16
16 -17 36 -1 52 7 7 12 12 13 12 0 0 0 -17 0 -38z m95 -28 c0 -8 -4 -14 -10
-14 -5 0 -10 9 -10 21 0 11 5 17 10 14 6 -3 10 -13 10 -21z m-1445 -4 c3 -5 1
-10 -4 -10 -6 0 -11 5 -11 10 0 6 2 10 4 10 3 0 8 -4 11 -10z m1607 -50 c14
-35 15 -46 4 -78 -15 -46 -10 -79 13 -85 10 -2 21 -19 26 -38 l8 -34 6 49 c5
44 7 48 20 32 9 -10 13 -37 12 -71 -1 -53 0 -55 24 -55 28 0 75 -40 75 -65 0
-8 5 -15 10 -15 6 0 10 -7 10 -16 0 -12 7 -15 31 -12 35 5 46 -10 30 -41 -7
-13 -8 -22 -1 -26 5 -3 10 -1 10 4 0 6 5 11 10 11 6 0 10 -10 9 -22 -3 -39 1
-58 12 -58 7 0 9 10 5 25 -5 20 -3 25 12 25 11 0 28 -11 38 -25 10 -14 25 -25
32 -25 7 0 15 -6 18 -14 3 -8 18 -19 34 -26 16 -7 31 -18 34 -26 3 -8 15 -14
27 -14 13 0 23 -8 27 -22 6 -23 6 -23 12 2 13 51 79 3 80 -57 0 -17 7 -39 16
-47 18 -19 20 -19 45 -6 14 8 27 6 51 -6 22 -12 33 -13 36 -5 2 6 8 9 13 5 15
-9 10 -24 -9 -24 -11 0 -23 -13 -31 -35 -10 -30 -15 -34 -31 -25 -30 16 -80 1
-80 -24 0 -11 -4 -28 -9 -35 -8 -12 -11 -9 -16 12 -9 35 -45 38 -45 4 0 -13
-5 -28 -10 -33 -8 -8 -7 -19 1 -37 15 -32 25 -34 34 -7 4 13 15 20 31 20 23 0
24 -2 18 -37 -4 -21 -8 -40 -10 -42 -2 -2 1 -12 7 -22 15 -29 -53 -89 -102
-89 -21 0 -40 -4 -44 -9 -15 -25 -65 -22 -112 5 -26 16 -50 32 -51 36 -2 5
-21 18 -43 28 -21 11 -39 25 -39 30 0 6 -7 10 -15 10 -28 0 -185 156 -248 247
-37 54 -38 57 -21 70 16 12 17 16 5 34 -10 17 -10 27 0 51 9 22 9 32 0 41 -6
6 -11 19 -11 28 0 10 -6 20 -12 22 -8 4 -4 8 10 12 28 9 29 35 2 35 -11 0 -22
6 -24 13 -2 6 -9 31 -15 55 -7 23 -17 42 -24 42 -7 0 -19 21 -26 46 -12 41
-12 50 5 82 16 33 18 35 22 15 5 -30 48 -32 57 -3 3 11 11 20 16 20 5 0 9 12
8 28 l-1 27 -11 -27 c-16 -41 -33 -34 -51 21 -26 79 -23 91 23 91 l38 0 -5 50
c-6 60 7 64 30 10z m-122 -25 c6 -16 5 -35 -2 -56 -8 -24 -8 -33 2 -39 9 -5 9
-9 1 -14 -6 -4 -11 -22 -11 -39 -1 -31 -1 -31 -16 -12 -8 11 -13 30 -11 42 2
12 1 24 -4 25 -6 3 0 40 17 106 5 19 14 14 24 -13z m-285 -5 c3 -5 1 -10 -4
-10 -6 0 -11 5 -11 10 0 6 2 10 4 10 3 0 8 -4 11 -10z m465 -27 c0 -15 2 -14
14 3 22 29 31 9 16 -36 -15 -47 -25 -51 -33 -12 -3 15 -9 35 -12 45 -4 10 -3
17 4 17 6 0 11 -8 11 -17z m-530 -77 c0 -15 -18 -31 -26 -23 -7 7 7 37 17 37
5 0 9 -6 9 -14z m1170 -2 c0 -17 -22 -14 -28 4 -2 7 3 12 12 12 9 0 16 -7 16
-16z m-1215 -24 c-3 -5 -13 -10 -21 -10 -8 0 -12 5 -9 10 3 6 13 10 21 10 8 0
12 -4 9 -10z m5040 -20 c3 -5 2 -10 -4 -10 -5 0 -13 5 -16 10 -3 6 -2 10 4 10
5 0 13 -4 16 -10z m-4255 -38 c0 -26 -11 -34 -27 -21 -20 17 -16 39 7 39 13 0
20 -7 20 -18z m133 -84 c-3 -29 -10 -54 -15 -56 -4 -2 -8 -21 -8 -43 0 -21 -3
-39 -7 -39 -14 0 -55 69 -48 80 3 5 17 7 31 4 24 -6 34 9 14 21 -5 3 -6 13 -3
23 7 20 34 62 39 62 2 0 0 -24 -3 -52z m-108 24 c-3 -3 -11 0 -18 7 -9 10 -8
11 6 5 10 -3 15 -9 12 -12z m155 8 c0 -5 -7 -10 -15 -10 -8 0 -15 5 -15 10 0
6 7 10 15 10 8 0 15 -4 15 -10z m10 -45 c0 -15 6 -25 14 -25 8 0 18 -4 21 -10
4 -6 -7 -10 -24 -10 -29 0 -31 3 -31 35 0 19 5 35 10 35 6 0 10 -11 10 -25z
m-2480 -5 c0 -5 -7 -10 -15 -10 -8 0 -15 5 -15 10 0 6 7 10 15 10 8 0 15 -4
15 -10z m1040 -64 c0 -2 -7 -6 -15 -10 -8 -3 -15 -1 -15 4 0 6 7 10 15 10 8 0
15 -2 15 -4z m1518 -53 c3 -17 -2 -23 -16 -23 -24 0 -46 25 -37 40 12 19 50 7
53 -17z m-2328 7 c0 -5 -7 -10 -15 -10 -8 0 -15 5 -15 10 0 6 7 10 15 10 8 0
15 -4 15 -10z m1687 -112 c-3 -8 -6 -5 -6 6 -1 11 2 17 5 13 3 -3 4 -12 1 -19z
m-2017 -23 c0 -8 -4 -15 -10 -15 -5 0 -10 7 -10 15 0 8 5 15 10 15 6 0 10 -7
10 -15z m2064 -16 c10 -52 -34 -78 -47 -28 -3 10 -1 17 4 13 5 -3 9 3 9 14 0
42 25 43 34 1z m-1174 12 c0 -6 -4 -13 -10 -16 -5 -3 -10 1 -10 9 0 9 5 16 10
16 6 0 10 -4 10 -9z m-40 -25 c0 -2 -7 -7 -16 -10 -8 -3 -12 -2 -9 4 6 10 25
14 25 6z m-10 -41 c0 -8 -7 -15 -15 -15 -16 0 -20 12 -8 23 11 12 23 8 23 -8z
m5477 -37 c-3 -8 -6 -5 -6 6 -1 11 2 17 5 13 3 -3 4 -12 1 -19z m-4227 2 c0
-5 -5 -10 -11 -10 -5 0 -7 5 -4 10 3 6 8 10 11 10 2 0 4 -4 4 -10z m-1630 -14
c0 -3 -4 -8 -10 -11 -5 -3 -10 -1 -10 4 0 6 5 11 10 11 6 0 10 -2 10 -4z m17
-42 c-3 -3 -12 -4 -19 -1 -8 3 -5 6 6 6 11 1 17 -2 13 -5z m-73 -43 c-8 -9
-34 10 -34 25 0 16 2 16 19 -2 10 -10 17 -21 15 -23z m-744 -27 c0 -8 -4 -12
-10 -9 -5 3 -10 13 -10 21 0 8 5 12 10 9 6 -3 10 -13 10 -21z m615 -44 c-20
-23 -29 -21 -19 4 3 9 13 16 22 16 13 0 12 -3 -3 -20z m2585 -29 c0 -24 3 -28
23 -24 27 5 44 -22 49 -79 3 -30 0 -38 -16 -42 -10 -3 -28 0 -38 5 -15 8 -24
6 -39 -7 -17 -15 -19 -15 -19 -1 0 8 5 17 12 19 7 3 9 12 5 22 -4 9 -11 15
-16 11 -6 -3 -15 4 -21 16 -13 23 -6 69 10 69 6 0 10 9 10 20 0 13 7 20 20 20
15 0 20 -7 20 -29z m-2655 -11 c-10 -11 -21 -18 -23 -15 -3 3 3 12 14 20 27
20 30 18 9 -5z m-463 -115 c0 -14 1 -31 2 -37 1 -7 -6 -13 -14 -13 -10 0 -14
8 -12 23 2 12 -2 22 -9 22 -8 0 -8 4 1 15 18 22 30 18 32 -10z m305 19 c-3 -3
-12 -4 -19 -1 -8 3 -5 6 6 6 11 1 17 -2 13 -5z m3137 -214 c-16 -16 -153 -42
-170 -32 -11 6 0 12 38 20 112 25 148 28 132 12z m2248 -95 c24 -47 33 -77 27
-81 -6 -3 -15 -2 -20 3 -16 16 -78 146 -73 154 11 18 31 -6 66 -76z m1095 49
c-3 -3 -12 -4 -19 -1 -8 3 -5 6 6 6 11 1 17 -2 13 -5z m71 -32 c-2 -11 7 -18
27 -23 l30 -7 -31 -1 c-17 0 -52 -4 -78 -7 l-46 -7 0 33 c0 31 1 32 40 28 22
-2 40 0 40 5 0 4 5 5 10 2 6 -4 9 -14 8 -23z m130 6 c7 -7 12 -20 12 -29 0
-13 -9 -16 -40 -15 -22 0 -40 4 -40 8 0 5 5 8 11 8 6 0 9 6 6 14 -5 13 2 18
34 25 3 0 10 -4 17 -11z m-7181 -117 c-1 -17 -5 -27 -9 -23 -7 7 0 52 8 52 2
0 2 -13 1 -29z m6133 -11 c0 -5 -4 -10 -10 -10 -5 0 -10 5 -10 10 0 6 5 10 10
10 6 0 10 -4 10 -10z m-380 -244 c0 -22 -11 -46 -21 -46 -10 0 -12 43 -2 53
11 12 23 8 23 -7z m260 -176 c0 -5 -4 -10 -10 -10 -5 0 -10 5 -10 10 0 6 5 10
10 10 6 0 10 -4 10 -10z m1070 -134 c0 -3 -4 -8 -10 -11 -5 -3 -10 -1 -10 4 0
6 5 11 10 11 6 0 10 -2 10 -4z m-1085 -26 c-3 -6 6 -15 22 -22 34 -15 38 -15
86 -17 32 -1 38 -4 35 -21 -2 -10 -1 -19 2 -18 10 3 50 -23 50 -32 0 -6 -9
-10 -19 -10 -11 0 -21 -5 -23 -11 -2 -6 -23 -14 -46 -19 -49 -9 -62 -1 -82 52
-7 18 -19 47 -26 65 -17 37 -17 43 -3 43 5 0 7 -5 4 -10z m902 -52 c3 -6 -2
-17 -11 -26 -10 -11 -16 -12 -16 -4 0 8 -17 12 -47 12 l-48 1 30 13 c35 16 83
17 92 4z m-423 -33 c-4 -8 -8 -15 -10 -15 -2 0 -4 7 -4 15 0 8 4 15 10 15 5 0
7 -7 4 -15z m-31 -27 c30 -14 35 -28 11 -28 -8 0 -13 -3 -10 -8 7 -12 -27 -79
-52 -100 -19 -16 -21 -27 -19 -88 3 -60 6 -69 23 -70 10 0 34 -4 52 -8 18 -4
38 -4 45 1 7 5 28 8 47 8 19 -1 69 -3 110 -4 l75 -2 -55 -20 c-52 -19 -135
-34 -324 -60 -44 -5 -84 -13 -90 -17 -6 -3 -27 -7 -46 -8 -19 0 -57 -5 -85
-11 -59 -13 -215 -9 -243 6 -36 19 -81 80 -97 133 -16 50 -16 56 2 103 15 40
27 55 61 73 47 26 78 24 64 -5 -4 -10 -6 -64 -4 -119 l4 -101 43 -22 c40 -20
45 -20 79 -6 20 9 41 13 47 10 5 -4 24 3 42 14 24 15 36 17 51 9 31 -17 54 17
48 75 -4 44 -6 47 -31 47 -30 0 -45 21 -56 84 -7 34 7 53 18 24 3 -9 13 -7 35
10 17 12 36 22 42 22 5 0 10 4 10 8 0 5 19 15 43 22 23 7 60 19 82 26 50 16
46 16 78 2z m-4468 -84 c15 -24 22 -26 62 -21 54 6 67 -12 33 -48 -21 -22 -21
-24 -5 -49 25 -38 14 -57 -27 -45 -46 13 -49 12 -82 -16 -39 -34 -46 -32 -46
15 0 36 -3 41 -41 60 -46 24 -47 42 -2 51 42 8 53 17 53 43 0 44 29 49 55 10z
m508 -271 c48 -202 108 -525 109 -584 1 -165 -100 -310 -285 -405 l-91 -47
-80 12 c-146 23 -273 80 -355 160 -76 75 -111 171 -176 481 -13 63 -32 150
-41 193 -14 67 -14 81 -3 91 14 13 24 15 319 66 96 16 209 37 250 46 41 9 102
20 135 25 33 5 80 13 105 18 96 18 95 19 113 -56z m2014 21 c26 -15 75 -41
108 -59 78 -43 314 -144 435 -185 103 -36 134 -36 171 1 17 17 20 30 16 72 -3
29 -8 64 -12 80 -19 74 75 -12 119 -109 48 -104 43 -180 -15 -229 -25 -20 -41
-25 -85 -25 -74 0 -131 25 -361 158 -233 134 -342 207 -425 281 -53 47 -25 56
49 15z m2693 -115 c0 -47 -2 -50 -21 -44 -22 7 -68 -11 -82 -32 -9 -14 -63
-18 -71 -5 -2 4 -1 14 5 22 7 12 9 13 9 1 0 -8 11 -2 27 15 15 16 26 35 25 42
-3 11 10 16 31 13 4 0 7 3 7 9 0 5 15 14 33 19 17 5 33 10 35 10 1 1 2 -22 2
-50z m-900 -19 c0 -15 100 -45 180 -54 100 -11 119 -15 140 -26 l22 -12 -24
-25 c-12 -14 -47 -39 -75 -55 -57 -32 -62 -40 -37 -60 9 -7 32 -30 52 -51 24
-25 41 -35 51 -31 9 4 28 6 44 5 15 -1 27 4 27 10 0 7 11 9 30 5 22 -4 32 -1
36 9 9 23 64 36 109 25 30 -7 43 -6 55 5 8 7 37 16 64 20 42 7 51 5 63 -11 13
-17 15 -18 26 -3 8 11 33 18 75 21 61 4 62 4 62 -22 0 -26 -4 -27 -187 -74
-104 -26 -201 -53 -218 -61 -46 -20 -106 -35 -144 -35 -58 0 -140 32 -168 64
-25 30 -26 35 -8 122 7 30 5 31 -29 37 -20 3 -51 15 -69 26 -56 34 -141 203
-93 185 9 -3 16 -10 16 -14z m490 -230 c0 -5 -7 -10 -15 -10 -8 0 -15 5 -15
10 0 6 7 10 15 10 8 0 15 -4 15 -10z"/>
<path d="M7400 6195 c0 -17 5 -25 13 -22 6 2 12 12 12 22 0 10 -6 20 -12 23
-8 2 -13 -6 -13 -23z"/>
<path d="M7508 6133 c7 -3 16 -2 19 1 4 3 -2 6 -13 5 -11 0 -14 -3 -6 -6z"/>
<path d="M7558 6133 c7 -3 16 -2 19 1 4 3 -2 6 -13 5 -11 0 -14 -3 -6 -6z"/>
<path d="M4430 7700 c0 -5 7 -10 15 -10 8 0 15 5 15 10 0 6 -7 10 -15 10 -8 0
-15 -4 -15 -10z"/>
<path d="M4190 7529 c0 -5 5 -7 10 -4 6 3 10 8 10 11 0 2 -4 4 -10 4 -5 0 -10
-5 -10 -11z"/>
<path d="M4201 7426 c-14 -17 -2 -48 27 -66 12 -8 14 -13 4 -16 -6 -3 -10 -10
-7 -14 8 -13 45 21 45 40 0 8 -13 27 -29 43 -24 24 -30 25 -40 13z"/>
<path d="M3181 7266 c-8 -10 -8 -16 3 -25 11 -9 15 -7 19 9 6 25 -7 35 -22 16z"/>
<path d="M4320 7249 c0 -5 5 -7 10 -4 6 3 10 8 10 11 0 2 -4 4 -10 4 -5 0 -10
-5 -10 -11z"/>
<path d="M3437 7183 c-4 -3 -7 -11 -7 -17 0 -6 5 -5 12 2 6 6 9 14 7 17 -3 3
-9 2 -12 -2z"/>
<path d="M3005 7110 c-3 -5 -1 -10 4 -10 6 0 11 5 11 10 0 6 -2 10 -4 10 -3 0
-8 -4 -11 -10z"/>
<path d="M2952 7070 c0 -14 2 -19 5 -12 2 6 2 18 0 25 -3 6 -5 1 -5 -13z"/>
<path d="M3027 7035 c-4 -8 -2 -17 3 -20 6 -4 10 3 10 14 0 25 -6 27 -13 6z"/>
<path d="M4271 7031 c-6 -11 -11 -22 -11 -25 0 -11 21 -6 35 8 12 12 12 16 0
26 -11 9 -16 7 -24 -9z"/>
<path d="M3160 6999 c0 -25 33 -22 38 4 2 12 -3 17 -17 17 -15 0 -21 -6 -21
-21z"/>
<path d="M4218 7013 c7 -3 16 -2 19 1 4 3 -2 6 -13 5 -11 0 -14 -3 -6 -6z"/>
<path d="M3040 6772 c0 -26 4 -41 10 -37 13 8 13 45 0 65 -7 11 -10 3 -10 -28z"/>
<path d="M2960 6486 c0 -14 5 -26 10 -26 6 0 10 9 10 19 0 11 -4 23 -10 26 -6
4 -10 -5 -10 -19z"/>
<path d="M2977 6260 c9 -22 23 -40 31 -40 9 0 12 6 8 16 -3 9 -6 27 -6 40 0
19 -5 24 -24 24 -24 0 -24 0 -9 -40z"/>
<path d="M2950 6209 c0 -5 5 -7 10 -4 6 3 10 8 10 11 0 2 -4 4 -10 4 -5 0 -10
-5 -10 -11z"/>
<path d="M3108 5863 c6 -2 12 -13 12 -24 0 -10 7 -19 15 -19 8 0 15 5 15 11 0
13 -30 39 -45 38 -5 0 -4 -3 3 -6z"/>
<path d="M3360 5854 c0 -8 5 -12 10 -9 6 4 8 11 5 16 -9 14 -15 11 -15 -7z"/>
<path d="M2383 6849 c-25 -16 -36 -33 -47 -72 -31 -112 -37 -153 -26 -181 5
-15 10 -38 10 -52 0 -14 6 -27 14 -30 12 -5 61 -106 96 -201 13 -34 50 -75 50
-54 0 7 -5 22 -12 34 -14 26 -58 203 -58 234 0 13 11 29 25 39 23 15 25 23 25
83 0 63 1 67 29 79 20 9 36 10 55 2 38 -14 46 -13 46 9 0 23 -64 98 -101 117
-38 19 -68 17 -106 -7z m62 -189 c3 -5 1 -10 -4 -10 -6 0 -11 5 -11 10 0 6 2
10 4 10 3 0 8 -4 11 -10z"/>
<path d="M2630 6686 c0 -8 4 -17 9 -20 5 -4 7 3 4 14 -6 23 -13 26 -13 6z"/>
<path d="M2661 6624 c0 -11 3 -14 6 -6 3 7 2 16 -1 19 -3 4 -6 -2 -5 -13z"/>
<path d="M2431 6518 c-1 -16 4 -28 9 -28 12 0 12 8 0 35 -8 18 -9 17 -9 -7z"/>
<path d="M6886 5497 c-52 -30 -77 -65 -83 -120 -18 -155 149 -234 265 -126 79
74 58 205 -41 249 -55 25 -93 25 -141 -3z"/>
<path d="M6619 5347 c-32 -25 -31 -52 7 -136 29 -64 42 -83 62 -88 14 -3 32
-1 41 4 44 29 -15 225 -70 230 -13 2 -31 -3 -40 -10z m71 -88 c0 -5 -4 -9 -10
-9 -5 0 -10 7 -10 16 0 8 5 12 10 9 6 -3 10 -10 10 -16z"/>
<path d="M7053 5195 c-40 -19 -76 -35 -81 -35 -20 0 -45 -42 -44 -72 1 -36 31
-68 64 -68 31 0 164 59 193 86 23 21 26 31 21 57 -14 70 -57 79 -153 32z"/>
<path d="M6277 5133 c-11 -3 -16 -10 -13 -20 3 -8 6 -17 6 -19 0 -2 5 -4 10
-4 6 0 10 7 10 15 0 18 16 20 23 3 3 -7 6 -3 6 10 1 22 -6 24 -42 15z"/>
<path d="M6170 5042 c0 -57 8 -69 27 -42 8 11 21 20 29 20 8 0 14 4 14 8 0 10
-53 62 -63 62 -4 0 -7 -22 -7 -48z"/>
<path d="M7103 5030 c-61 -29 -88 -72 -88 -140 0 -68 20 -101 80 -138 25 -15
45 -33 45 -39 0 -19 12 -16 87 22 73 37 99 68 109 135 8 49 -24 120 -68 152
-42 29 -112 33 -165 8z"/>
<path d="M6080 5034 c0 -21 41 -74 57 -74 14 0 14 3 -5 16 -12 8 -22 21 -22
28 0 8 -7 19 -15 26 -8 7 -15 9 -15 4z"/>
<path d="M6010 5000 c0 -5 5 -10 11 -10 5 0 7 5 4 10 -3 6 -8 10 -11 10 -2 0
-4 -4 -4 -10z"/>
<path d="M5980 4986 c0 -8 5 -18 10 -21 6 -3 10 3 10 14 0 12 -4 21 -10 21 -5
0 -10 -6 -10 -14z"/>
<path d="M6410 4959 c0 -5 5 -7 10 -4 6 3 10 8 10 11 0 2 -4 4 -10 4 -5 0 -10
-5 -10 -11z"/>
<path d="M6510 4950 c0 -5 7 -10 15 -10 8 0 15 5 15 10 0 6 -7 10 -15 10 -8 0
-15 -4 -15 -10z"/>
<path d="M6455 4929 c-10 -15 3 -25 16 -12 7 7 7 13 1 17 -6 3 -14 1 -17 -5z"/>
<path d="M7401 4892 c-1 -21 -10 -41 -25 -55 -18 -17 -22 -27 -15 -40 8 -13 1
-25 -33 -57 -24 -22 -49 -38 -57 -35 -7 3 -28 -3 -46 -14 -18 -10 -46 -22 -63
-26 -17 -3 -33 -13 -36 -21 -3 -9 -10 -13 -15 -10 -14 9 -61 -15 -61 -31 0
-15 26 -18 35 -3 10 16 114 62 124 55 22 -13 251 112 251 137 0 9 -3 8 -10 -2
-8 -12 -10 -12 -10 -1 0 11 -3 11 -15 1 -13 -11 -14 -7 -10 31 3 24 2 58 -4
74 l-9 30 -1 -33z"/>
<path d="M6360 4890 c-20 -12 -5 -24 16 -12 9 5 12 12 7 15 -5 3 -15 2 -23 -3z"/>
<path d="M6463 4866 c-27 -13 -31 -32 -5 -21 9 4 25 10 35 12 19 6 24 24 5 22
-7 -1 -23 -6 -35 -13z"/>
<path d="M7445 4870 c-8 -12 20 -24 35 -15 5 3 10 10 10 16 0 12 -37 12 -45
-1z"/>
<path d="M6385 4831 c-6 -11 9 -23 19 -14 9 9 7 23 -3 23 -6 0 -12 -4 -16 -9z"/>
<path d="M6312 4801 c4 -13 18 -16 19 -4 0 4 -5 9 -11 12 -7 2 -11 -2 -8 -8z"/>
<path d="M6150 4790 c-13 -8 -12 -10 3 -10 9 0 17 5 17 10 0 12 -1 12 -20 0z"/>
<path d="M6535 4780 c-3 -5 3 -10 14 -10 11 0 23 5 26 10 3 6 -3 10 -14 10
-11 0 -23 -4 -26 -10z"/>
<path d="M6258 4773 c-10 -2 -18 -9 -18 -14 0 -6 7 -6 18 -1 9 5 24 12 32 15
13 5 13 5 0 5 -8 0 -23 -2 -32 -5z"/>
<path d="M6085 4760 c-3 -5 -2 -10 4 -10 5 0 13 5 16 10 3 6 2 10 -4 10 -5 0
-13 -4 -16 -10z"/>
<path d="M6605 4760 c-3 -5 1 -10 9 -10 9 0 16 5 16 10 0 6 -4 10 -9 10 -6 0
-13 -4 -16 -10z"/>
<path d="M6205 4740 c4 -6 11 -8 16 -5 14 9 11 15 -7 15 -8 0 -12 -5 -9 -10z"/>
<path d="M6105 4700 c-3 -5 -2 -10 4 -10 5 0 13 5 16 10 3 6 2 10 -4 10 -5 0
-13 -4 -16 -10z"/>
<path d="M7043 4684 c-23 -8 -44 -22 -47 -30 -7 -19 11 -17 59 6 22 11 47 20
55 20 13 0 13 1 0 10 -18 12 -15 12 -67 -6z"/>
<path d="M6946 4643 c-9 -9 -7 -33 3 -33 12 0 22 28 12 34 -5 3 -11 3 -15 -1z"/>
<path d="M6290 4620 c-9 -6 -10 -10 -3 -10 6 0 15 5 18 10 8 12 4 12 -15 0z"/>
<path d="M6873 4608 c-26 -12 -30 -28 -9 -28 25 0 46 12 46 26 0 16 -7 17 -37
2z"/>
<path d="M7000 4589 c0 -5 5 -7 10 -4 6 3 10 8 10 11 0 2 -4 4 -10 4 -5 0 -10
-5 -10 -11z"/>
<path d="M6767 4563 c-13 -12 -7 -23 12 -23 10 0 21 7 25 15 5 15 -24 22 -37
8z"/>
<path d="M6908 4552 c-16 -9 -28 -22 -28 -30 0 -10 5 -10 28 1 15 8 39 17 55
21 15 3 27 11 27 16 0 16 -53 11 -82 -8z"/>
<path d="M6836 4523 c-11 -11 -6 -23 8 -23 8 0 17 4 20 9 7 10 -19 23 -28 14z"/>
<path d="M6635 4500 c-3 -5 3 -10 14 -10 12 0 21 5 21 10 0 6 -6 10 -14 10 -8
0 -18 -4 -21 -10z"/>
<path d="M6757 4483 c-16 -8 -26 -17 -23 -20 10 -10 66 9 66 23 0 17 -6 16
-43 -3z"/>
<path d="M6600 4479 c0 -5 5 -7 10 -4 6 3 10 8 10 11 0 2 -4 4 -10 4 -5 0 -10
-5 -10 -11z"/>
<path d="M6979 4451 c-16 -16 -29 -35 -29 -42 0 -7 1 -10 3 -8 1 2 18 21 36
42 41 44 33 50 -10 8z"/>
<path d="M6518 4452 c-21 -9 -38 -23 -38 -30 0 -15 48 7 69 32 16 19 16 19
-31 -2z"/>
<path d="M6685 4449 c-4 -6 -5 -12 -2 -15 7 -7 37 7 37 17 0 13 -27 11 -35 -2z"/>
<path d="M6598 4413 c-35 -14 -51 -33 -29 -33 14 0 71 34 71 43 0 4 -1 7 -2 6
-2 -1 -20 -8 -40 -16z"/>
<path d="M6325 4364 c-53 -27 -73 -42 -40 -30 11 4 28 9 38 11 26 6 85 45 67
45 -8 0 -37 -12 -65 -26z"/>
<path d="M6520 4369 c0 -5 5 -7 10 -4 6 3 10 8 10 11 0 2 -4 4 -10 4 -5 0 -10
-5 -10 -11z"/>
<path d="M6280 4176 c0 -2 29 -23 65 -47 36 -23 65 -48 65 -53 0 -6 -7 -20
-15 -30 -26 -34 -18 -64 23 -90 59 -39 87 -42 107 -13 10 16 14 34 9 51 -7 30
0 32 49 11 50 -21 57 -19 57 14 0 34 -39 71 -74 71 -12 0 -75 20 -140 45 -109
41 -146 52 -146 41z"/>
<path d="M6895 4147 c-12 -15 -16 -67 -5 -67 19 0 37 30 33 54 -6 28 -13 32
-28 13z"/>
<path d="M7178 3616 c-33 -12 -40 -41 -8 -31 13 4 22 1 26 -9 3 -9 13 -16 21
-16 12 0 14 7 8 28 -9 37 -15 41 -47 28z"/>
<path d="M7533 3493 c9 -2 23 -2 30 0 6 3 -1 5 -18 5 -16 0 -22 -2 -12 -5z"/>
<path d="M4075 5110 c-4 -6 8 -10 30 -10 22 0 34 4 30 10 -3 6 -17 10 -30 10
-13 0 -27 -4 -30 -10z"/>
<path d="M3831 5004 c0 -11 3 -14 6 -6 3 7 2 16 -1 19 -3 4 -6 -2 -5 -13z"/>
<path d="M4110 4757 c0 -14 13 -35 31 -51 36 -33 72 -32 77 2 3 18 -2 23 -27
28 -21 5 -31 12 -31 25 0 14 -7 19 -25 19 -20 0 -25 -5 -25 -23z"/>
<path d="M4066 4721 c-4 -7 -5 -15 -2 -18 9 -9 19 4 14 18 -4 11 -6 11 -12 0z"/>
<path d="M3280 4450 c0 -19 3 -21 12 -12 9 9 9 15 0 24 -9 9 -12 7 -12 -12z"/>
<path d="M3358 4420 c2 -22 8 -40 13 -40 5 0 9 18 9 40 0 26 -5 40 -13 40 -9
0 -11 -12 -9 -40z"/>
<path d="M3888 4063 c-10 -2 -18 -9 -18 -14 0 -13 12 -11 34 6 20 15 16 17
-16 8z"/>
<path d="M3800 3866 c0 -8 5 -18 10 -21 6 -3 10 1 10 9 0 8 -4 18 -10 21 -5 3
-10 -1 -10 -9z"/>
<path d="M3868 3733 c6 -2 18 -2 25 0 6 3 1 5 -13 5 -14 0 -19 -2 -12 -5z"/>
<path d="M4060 3806 c0 -8 5 -18 10 -21 6 -3 10 3 10 14 0 12 -4 21 -10 21 -5
0 -10 -6 -10 -14z"/>
<path d="M7740 3460 c0 -5 5 -10 10 -10 6 0 10 5 10 10 0 6 -4 10 -10 10 -5 0
-10 -4 -10 -10z"/>
<path d="M7054 2429 c-3 -6 -1 -16 5 -22 8 -8 11 -5 11 11 0 24 -5 28 -16 11z"/>
<path d="M6960 2420 c0 -5 18 -10 40 -10 22 0 40 5 40 10 0 6 -18 10 -40 10
-22 0 -40 -4 -40 -10z"/>
<path d="M3020 2309 c-385 -68 -681 -126 -691 -136 -5 -5 -4 -26 1 -48 6 -22
32 -141 59 -265 27 -124 60 -251 74 -282 28 -62 85 -130 146 -172 58 -41 196
-87 276 -93 69 -5 71 -4 153 44 131 76 203 158 237 269 21 69 19 104 -15 271
-17 81 -39 192 -50 245 -35 173 -40 188 -64 187 -11 -1 -68 -10 -126 -20z
m100 -40 c7 -11 9 -31 6 -43 -4 -15 1 -28 14 -39 25 -21 26 -63 3 -72 -16 -6
-16 -8 5 -24 20 -14 22 -21 13 -44 -9 -23 -7 -31 9 -47 21 -21 26 -55 10 -65
-15 -9 -12 -25 5 -25 17 0 39 -46 31 -67 -3 -7 -16 -13 -28 -13 -22 -1 -22 -1
5 -16 15 -8 27 -21 27 -29 0 -27 -13 -45 -32 -45 -11 0 -52 -11 -90 -25 -80
-29 -161 -32 -215 -10 -20 8 -37 14 -38 13 0 -2 -6 -16 -13 -32 -10 -23 -17
-27 -39 -23 -29 5 -53 -1 -53 -13 0 -5 10 -10 22 -12 14 -2 24 -12 28 -28 4
-18 13 -26 35 -28 25 -3 27 -2 16 11 -7 9 -9 26 -5 41 5 21 12 26 37 26 17 0
39 -7 49 -17 17 -15 19 -15 37 1 14 13 33 17 65 15 26 -2 51 2 58 9 7 7 24 12
40 12 17 0 31 7 38 20 14 27 65 27 80 1 21 -40 -19 -79 -64 -61 -28 10 -42 -1
-32 -26 4 -10 16 -14 38 -12 31 3 33 1 36 -29 2 -19 -1 -33 -7 -33 -6 0 -29
-18 -52 -39 -22 -22 -56 -45 -76 -52 -42 -14 -117 -5 -151 17 -13 9 -25 14
-27 12 -1 -2 -8 -13 -14 -25 -9 -18 -21 -23 -49 -23 -42 0 -56 -7 -65 -32 -8
-21 -27 -23 -70 -5 -47 20 -64 44 -49 68 16 25 15 27 -10 31 -31 4 -36 48 -8
73 11 10 20 28 20 40 0 11 6 27 12 33 10 10 10 15 -2 22 -25 16 -38 11 -54
-22 -10 -19 -14 -43 -10 -63 4 -26 1 -33 -19 -44 -36 -19 -67 0 -67 40 0 22 5
32 20 36 29 8 25 16 -20 36 -30 14 -40 24 -40 43 0 18 7 25 28 30 39 10 46 15
31 25 -7 4 -14 20 -15 36 -1 25 -4 28 -31 25 -17 -2 -35 3 -42 11 -18 23 -3
65 27 75 l26 8 -39 20 c-46 22 -62 64 -26 64 25 0 27 15 6 36 -11 12 -12 20
-4 35 6 11 16 22 22 24 7 3 25 9 41 15 l29 11 -23 24 c-42 45 2 76 83 59 34
-7 45 -16 57 -41 14 -30 19 -33 60 -33 25 0 62 -3 83 -6 36 -6 37 -6 37 23 0
40 -8 45 -39 27 -47 -28 -101 11 -73 52 9 14 54 25 68 16 6 -4 13 -15 17 -25
6 -17 10 -16 44 8 24 15 51 25 74 25 33 0 40 -5 66 -45 28 -45 49 -55 71 -33
17 17 15 43 -3 58 -22 19 -15 52 15 67 34 17 37 16 50 -8z m-652 -111 c20 -20
14 -57 -11 -69 -31 -14 -82 5 -73 27 3 9 6 20 6 25 0 9 35 27 56 28 5 1 15 -4
22 -11z m504 -754 c11 -22 10 -28 -7 -40 -40 -29 -93 -7 -78 32 15 43 67 47
85 8z"/>
<path d="M3044 1990 l-51 -25 33 -44 c19 -24 34 -52 34 -62 0 -24 11 -24 44 2
30 23 34 54 9 67 -12 7 -15 18 -10 46 3 19 3 37 -1 39 -4 1 -30 -9 -58 -23z"/>
<path d="M2783 1969 l-12 -31 32 5 c22 3 38 -1 52 -13 19 -18 21 -18 50 6 28
22 28 24 8 24 -12 0 -42 9 -68 20 -26 11 -48 20 -49 20 -1 0 -7 -14 -13 -31z"/>
<path d="M2698 1933 c-35 -5 -35 -16 -3 -37 15 -10 25 -26 25 -39 0 -22 6 -24
81 -33 44 -5 82 -8 83 -7 2 2 1 15 -2 29 -4 23 -8 25 -34 20 -51 -10 -76 2
-80 37 -3 34 -15 39 -70 30z"/>
<path d="M2575 1920 c-3 -5 -2 -10 4 -10 5 0 13 5 16 10 3 6 2 10 -4 10 -5 0
-13 -4 -16 -10z"/>
<path d="M2551 1887 c-16 -20 -11 -61 9 -64 21 -4 48 15 35 25 -6 4 -15 18
-21 31 -9 20 -11 21 -23 8z"/>
<path d="M2770 1739 c0 -5 5 -7 10 -4 6 3 10 8 10 11 0 2 -4 4 -10 4 -5 0 -10
-5 -10 -11z"/>
<path d="M2896 1585 c-18 -13 -17 -14 8 -21 32 -8 39 -3 30 20 -7 19 -13 20
-38 1z"/>
</g>
</svg>
